<?xml version="1.0" encoding="utf-8"?>
<!-- Generator: Adobe Illustrator 27.2.0, SVG Export Plug-In . SVG Version: 6.00 Build 0)  -->
<svg version="1.1" id="Layer_1" xmlns="http://www.w3.org/2000/svg" xmlns:xlink="http://www.w3.org/1999/xlink" x="0px" y="0px"
	 viewBox="0 0 128 128" style="enable-background:new 0 0 128 128;" xml:space="preserve">
<style type="text/css">
	.st0{fill:#FFFFFF;}
</style>
<g>
	<path class="st0" d="M113.5,29.7c-0.3,0-0.6,0-1,0l-81.2,4.7c-3,0.2-4,1.7-4,5v74.2c0,4,2,5.5,6.5,5.2l77.7-4.5c4.5-0.2,5-3,5-6.2
		V34.5C116.6,31.6,115.6,29.9,113.5,29.7z M102.6,47.4L99.4,48v54.9c-2.3,2.3-5.7,3.4-9.1,3.4c-4,0-5.2-2.1-8.1-5.8l-25-38.8v36.6
		l9.1,2.3c0,0,0,3.4-5.7,4.6l-18.3,1.1c0-1.1-1.1-3.4,3.4-4.6l2.3-1.1v-48l-6.1-0.7c-0.5-2.2,0.7-5.3,4.2-5.7L64,44.6l26.3,38.9
		V49.1L83.4,48c0-2.3,2-4.1,5.7-4.6l16-1.1C106.3,44.6,105.1,46.9,102.6,47.4z"/>
	<path class="st0" d="M35,24.8l71.7-4.3c1.5,0,0.3-1.5-0.2-1.8l-11.9-8.6c-2-1.5-4.6-3.3-9.1-3.3c-0.6,0-1.3,0-2.1,0.1l-69.4,5
		c-2.5,0.2-3,1.5-2,2.5l9.9,7.8C25.8,25.5,27.4,25.3,35,24.8z"/>
	<path d="M120.7,20L97.9,4c-4.1-3-6.4-4-11-4c-1.5,0-3.3,0.1-5.5,0.3L10,5.5C4.3,6,2.3,9.7,2.3,14.2v77.6c0,3.5,1.2,6.5,4.3,10.5
		L23.3,124c2.8,3.5,5.3,4.2,10.5,4l82.9-5c7-0.5,9-3.7,9-9.2V26.4C125.7,23.4,124.5,22.7,120.7,20z M21.8,22.3l-9.9-7.8
		c-1-1-0.5-2.3,2-2.5l69.4-5c0.7-0.1,1.4-0.1,2.1-0.1c4.5,0.1,7.1,1.8,9.1,3.3l11.9,8.6c0.5,0.3,1.8,1.8,0.2,1.8L35,24.8
		C27.4,25.3,25.8,25.5,21.8,22.3z M116.6,108.1c0,3.2-0.5,6-5,6.2l-77.7,4.5c-4.5,0.2-6.5-1.2-6.5-5.2V39.4c0-3.2,1-4.7,4-5
		l81.2-4.7c0.3,0,0.7,0,1,0c2.1,0.2,3,1.9,3,4.7V108.1z"/>
	<path d="M89.1,43.4c-3.8,0.4-5.7,2.3-5.7,4.6l6.9,1.1v34.3L64,44.6l-17.8,1.6c-3.5,0.4-4.7,3.5-4.2,5.7l6.1,0.7v48l-2.3,1.1
		c-4.6,1.1-3.4,3.4-3.4,4.6l18.3-1.1c5.7-1.1,5.7-4.6,5.7-4.6l-9.1-2.3V61.7l25,38.8c3,3.7,4.1,5.8,8.1,5.8c3.4,0,6.9-1.1,9.1-3.4
		V48l3.2-0.6c2.5-0.5,3.7-2.8,2.5-5.1L89.1,43.4z"/>
</g>
</svg>
