<?xml version="1.0" encoding="utf-8"?>
<!-- Generator: Adobe Illustrator 27.2.0, SVG Export Plug-In . SVG Version: 6.00 Build 0)  -->
<svg version="1.1" id="Layer_2_00000080205535014068666740000001105124381432111760_"
	 xmlns="http://www.w3.org/2000/svg" xmlns:xlink="http://www.w3.org/1999/xlink" x="0px" y="0px" viewBox="0 0 95 75.3"
	 style="enable-background:new 0 0 95 75.3;" xml:space="preserve">
<style type="text/css">
	.st0{fill:#FFFFFF;stroke:#FFFFFF;stroke-width:5;stroke-linejoin:round;stroke-miterlimit:10;}
	.st1{fill:#222222;}
	.st2{fill:#FFFFFF;}
</style>
<g>
	<polygon class="st0" points="2.5,18.7 28.3,2.5 92.5,2.5 92.5,51.8 69.4,66.6 49.9,66.6 49.9,72.8 2.5,72.8 	"/>
	<g id="Layer_1-2">
		<g>
			<path class="st1" d="M3.1,18.5c1.5-1,3-2,4.5-2.9c6.5-4.2,13.1-8.3,19.6-12.5c0.5-0.3,1.1-0.6,1.7-0.6c20.6,0,41.2,0,61.8,0
				c0.3,0,0.7,0,1,0c0,0.1,0.1,0.1,0.1,0.2c-0.6,0.4-1.1,0.8-1.7,1.1c-7.6,4.8-15.1,9.6-22.7,14.4c-0.5,0.3-1.1,0.5-1.6,0.5
				c-20.6,0-41.2,0-61.8,0c-0.3,0-0.7,0-1,0C3.2,18.6,3.2,18.6,3.1,18.5L3.1,18.5z"/>
			<path class="st1" d="M34.7,21c10.3,0,20.5,0,30.8,0c0.9,0,1.3,0.5,1.3,1.4c0,11,0,31.9,0,42.9c0,0.9-0.5,1.4-1.4,1.4
				c-4.8,0-9.5,0-14.3,0c-0.8,0-1.1,0.2-1.1,1.1c0.1,1.3,0,2.7,0,4c0.1,1-0.3,1.1-1.2,1.1c-4,0-7.9,0-11.8,0c-11,0-22.1,0-33.1,0
				c-1.4,0-1.4,0-1.4-1.4c0-13.1,0-36.2,0-49.3c0-1,0.3-1.1,1.2-1.1C14,21,24.4,21,34.7,21z M50,51.9c0,0.7,0,1.2,0,1.7
				c0,2.8,0,5.7,0,8.5c0,0.8,0.2,1,1,1c3.7,0,7.4,0,11,0c0.9,0,1.2-0.2,1.2-1.2c0-8.8,0-27.6,0-36.4c0-1-0.3-1.1-1.2-1.1
				c-18.3,0-36.7,0-55.1,0c-0.8,0-1.1,0.2-1.1,1.1c0,10.9,0,31.8,0,42.8c0,0.9,0.3,1.1,1.1,1.1c12.7,0,25.4,0,38.1,0
				c0.4,0,0.8,0,1.3,0v-2.7c-0.4,0-0.8,0-1.2,0c-8.2,0-16.5,0-24.7,0c-1,0-1.3-0.3-1.3-1.3c0-4,0-8,0-12c0-1.4,0-1.4,1.4-1.4
				c7.4,0,14.8,0,22.2,0C45.3,51.9,47.6,51.9,50,51.9L50,51.9z M46.5,55.5c-0.3,0-0.5-0.1-0.6-0.1c-7.4,0-14.8,0-22.2,0
				c-0.7,0-0.9,0.3-0.9,1c0,1.9,0,3.9,0,5.8c0,0.8,0.3,1,1,1c2.6,0,5.1,0,7.7,0c4.7,0,9.3,0,14,0c0.4,0,1,0.2,1-0.6
				C46.5,60.2,46.5,57.9,46.5,55.5z"/>
			<path class="st1" d="M69.4,66.6c0-2.5,0-4.8,0-7.2c0-9.3,0-28.6,0-37.9c0-0.9,0.3-1.3,1-1.8c7-4.5,13.9-8.9,20.9-13.4
				C91.7,6,92,5.8,92.4,5.6c0,0.5,0.1,0.8,0.1,1.1c0,11.4,0,32.8,0,44.2c0,0.6-0.1,1-0.7,1.4c-7.2,4.6-14.4,9.2-21.6,13.9
				C70,66.3,69.8,66.4,69.4,66.6L69.4,66.6z"/>
			<path class="st2" d="M50,51.9c-2.5,0-4.8,0-7.1,0c-7.4,0-14.8,0-22.2,0c-1.4,0-1.4,0-1.4,1.4c0,4,0,8,0,12c0,1,0.3,1.3,1.3,1.3
				c8.2,0,16.4,0,24.7,0c0.4,0,0.7,0,1.2,0v2.7c-0.4,0-0.8,0-1.3,0c-12.7,0-25.4,0-38.1,0c-0.8,0-1.2-0.2-1.1-1.1
				c0-10.9,0-31.8,0-42.8c0-0.8,0.3-1.1,1.1-1.1c18.4,0,36.7,0,55.1,0c0.9,0,1.2,0.2,1.2,1.1c0,8.8,0,27.6,0,36.4
				c0,1-0.3,1.2-1.2,1.2c-3.7,0-7.4,0-11,0c-0.8,0-1-0.2-1-1c0-2.8,0-5.7,0-8.5C50,53.1,50,52.6,50,51.9L50,51.9z M12.8,58.3
				c0.8,0,1.6,0,2.5,0c0.5,0,0.7-0.2,0.7-0.7c0-1.6,0-3.2,0-4.8c0-0.6-0.2-0.8-0.8-0.8c-1.6,0-3.1,0-4.7,0c-0.6,0-0.8,0.2-0.8,0.8
				c0,1.6,0,3.2,0,4.7c0,0.6,0.2,0.8,0.8,0.8C11.2,58.2,12,58.3,12.8,58.3L12.8,58.3z M53.4,58.3c2,0,3.9,0,5.8,0
				c0.2,0,0.5-0.4,0.5-0.6c0-1.7,0-3.4,0-5.1c0-0.2-0.4-0.5-0.6-0.5c-1.7,0-3.4,0-5.1,0c-0.2,0-0.6,0.3-0.6,0.5
				C53.4,54.4,53.4,56.3,53.4,58.3L53.4,58.3z"/>
			<path class="st2" d="M46.5,55.5c0,2.4,0,4.7,0,7.1c0,0.8-0.5,0.6-1,0.6c-4.7,0-9.3,0-14,0c-2.6,0-5.1,0-7.7,0c-0.8,0-1-0.2-1-1
				c0-1.9,0-3.9,0-5.8c0-0.6,0.1-1,0.9-1c7.4,0,14.8,0,22.2,0C46.1,55.4,46.2,55.4,46.5,55.5z"/>
			<path class="st1" d="M12.8,58.3c-0.8,0-1.6,0-2.4,0c-0.6,0-0.8-0.2-0.8-0.8c0-1.6,0-3.2,0-4.7c0-0.6,0.2-0.8,0.8-0.8
				c1.6,0,3.1,0,4.7,0c0.6,0,0.8,0.2,0.8,0.8c0,1.6,0,3.2,0,4.8c0,0.5-0.2,0.7-0.7,0.7C14.5,58.3,13.7,58.3,12.8,58.3L12.8,58.3z"/>
			<path class="st1" d="M53.4,58.3c0-2,0-3.9,0-5.7c0-0.2,0.4-0.5,0.6-0.5c1.7,0,3.4,0,5.1,0c0.2,0,0.6,0.4,0.6,0.5
				c0,1.7,0,3.4,0,5.1c0,0.2-0.3,0.6-0.5,0.6C57.3,58.3,55.4,58.3,53.4,58.3L53.4,58.3z"/>
		</g>
	</g>
</g>
</svg>
