<?xml version="1.0" encoding="utf-8"?>
<!-- Generator: Adobe Illustrator 27.2.0, SVG Export Plug-In . SVG Version: 6.00 Build 0)  -->
<svg version="1.1" id="Layer_1" xmlns="http://www.w3.org/2000/svg" xmlns:xlink="http://www.w3.org/1999/xlink" x="0px" y="0px"
	 viewBox="0 0 496 483.6" style="enable-background:new 0 0 496 483.6;" xml:space="preserve">
<style type="text/css">
	.st0{fill:#FFFFFF;}
</style>
<g>
	<ellipse class="st0" cx="248.2" cy="248.1" rx="247.3" ry="248"/>
	<g>
		<path d="M97.2,344.9c-1.3,1-1,3.3,0.7,5.2c1.6,1.6,3.9,2.3,5.2,1c1.3-1,1-3.3-0.7-5.2C100.8,344.3,98.5,343.6,97.2,344.9z"/>
		<path d="M107.4,357.7c-1.6,1-1.6,3.6,0,5.9c1.6,2.3,4.3,3.3,5.6,2.3c1.6-1.3,1.6-3.9,0-6.2C111.6,357.4,109,356.4,107.4,357.7z"/>
		<path d="M90.7,336.1c-2-0.6-3.6-0.3-4.3,0.7c-0.7,1.3,0.3,2.9,2.3,3.9c1.6,1,3.6,0.7,4.3-0.7C93.7,338.7,92.7,337.1,90.7,336.1z"
			/>
		<path d="M118.8,372.4c-1.6,1.3-1,4.3,1.3,6.2c2.3,2.3,5.2,2.6,6.5,1c1.3-1.3,0.7-4.3-1.3-6.2C123.1,371.1,120.1,370.8,118.8,372.4
			z"/>
		<path d="M244.8,0C106.1,0,0,105.3,0,244c0,110.9,69.8,205.8,169.5,239.2c12.8,2.3,17.3-5.6,17.3-12.1c0-6.2-0.3-40.4-0.3-61.4
			c0,0-70,15-84.7-29.8c0,0-11.4-29.1-27.8-36.6c0,0-22.9-15.7,1.6-15.4c0,0,24.9,2,38.6,25.8c21.9,38.6,58.6,27.5,72.9,20.9
			c2.3-16,8.8-27.1,16-33.7c-55.9-6.2-112.3-14.3-112.3-110.5c0-27.5,7.6-41.3,23.6-58.9c-2.6-6.5-11.1-33.3,2.6-67.9
			c20.9-6.5,69,27,69,27c20-5.6,41.5-8.5,62.8-8.5c21.3,0,42.8,2.9,62.8,8.5c0,0,48.1-33.6,69-27c13.7,34.7,5.2,61.4,2.6,67.9
			c16,17.7,25.8,31.5,25.8,58.9c0,96.5-58.9,104.2-114.8,110.5c9.2,7.9,17,22.9,17,46.4c0,33.7-0.3,75.4-0.3,83.6
			c0,6.5,4.6,14.4,17.3,12.1C428.2,449.8,496,354.9,496,244C496,105.3,383.5,0,244.8,0z"/>
		<path d="M160.3,385.8c-2.9,0-5.2,1.6-5.2,3.6c0,2.3,2.3,3.9,5.6,3.6c2.9,0,5.2-1.6,5.2-3.6C165.9,387.1,163.3,385.5,160.3,385.8z"
			/>
		<path d="M179,383.2c-2.9,0.7-4.9,2.6-4.6,4.9c0.3,2,2.9,3.3,5.9,2.6c2.9-0.7,4.9-2.6,4.6-4.6C184.6,384.2,181.9,382.9,179,383.2z"
			/>
		<path d="M141,382.6c-2.6-0.7-5.5,0.3-6.2,2.3s1.3,4.3,4.3,4.9c2.6,1,5.6,0,6.2-2S144,383.5,141,382.6z"/>
	</g>
</g>
</svg>
