<?xml version="1.0" encoding="UTF-8"?>
<svg id="Layer_2" data-name="Layer 2" xmlns="http://www.w3.org/2000/svg" viewBox="0 0 95.01 75.32">
  <defs>
    <style>
      .cls-1, .cls-2 {
        fill: #fff;
      }

      .cls-2 {
        stroke: #fff;
        stroke-linejoin: round;
        stroke-width: 5px;
      }

      .cls-3 {
        fill: #222;
      }
    </style>
  </defs>
  <g id="Layer_2-2" data-name="Layer 2">
    <g>
      <polygon class="cls-2" points="2.5 18.73 28.25 2.5 92.51 2.5 92.5 51.78 69.43 66.55 49.93 66.55 49.93 72.82 2.5 72.82 2.5 18.73"/>
      <g id="Layer_1-2" data-name="Layer 1-2">
        <g>
          <path class="cls-3" d="m3.14,18.48c1.51-.97,3.01-1.95,4.53-2.91,6.54-4.17,13.09-8.34,19.65-12.48.5-.31,1.14-.56,1.72-.56,20.58-.03,41.17-.03,61.75-.03h1.04c.02.07.05.14.07.21-.55.37-1.1.76-1.66,1.12-7.55,4.8-15.09,9.6-22.65,14.38-.47.3-1.09.5-1.64.5-20.58.02-41.17.02-61.75.02h-.98c-.03-.08-.06-.17-.09-.25h.01Z"/>
          <path class="cls-3" d="m34.67,21.01h30.78c.89,0,1.33.45,1.33,1.35v42.86c0,.92-.46,1.38-1.39,1.38-4.77,0-9.54.02-14.3-.02-.81,0-1.1.22-1.06,1.05.06,1.35-.05,2.7.04,4.04.07.97-.34,1.14-1.18,1.14-3.95-.03-7.89-.01-11.84-.01-11.05,0-22.1,0-33.14-.01-1.38,0-1.39,0-1.39-1.4,0-13.08.01-36.17-.02-49.26,0-.97.35-1.13,1.2-1.13,10.32.02,20.65.01,30.97.01Zm15.38,30.89v1.74c0,2.83.02,5.66-.02,8.49,0,.77.21,1.02,1,1.02,3.68-.04,7.37-.04,11.05,0,.94,0,1.23-.25,1.22-1.21-.04-8.79-.04-27.57,0-36.36,0-.95-.32-1.15-1.19-1.15-18.35.02-36.71.02-55.06,0-.8,0-1.08.23-1.08,1.06.02,10.92.02,31.85,0,42.77,0,.9.31,1.09,1.14,1.09,12.7-.02,25.39-.01,38.09-.01h1.26v-2.74h-1.15c-8.22,0-16.45-.02-24.67.02-1.01,0-1.29-.28-1.28-1.27.05-4.01.02-8.03.02-12.04q0-1.4,1.41-1.4c7.4,0,14.8,0,22.2-.02h7.06Zm-3.51,3.57c-.32-.04-.48-.08-.63-.08-7.39,0-14.78,0-22.17-.02-.73,0-.88.32-.87.96.02,1.94.04,3.88,0,5.81-.02.8.28,1.01,1.03,1,2.56-.03,5.12,0,7.68,0h13.99c.42,0,.98.17.97-.6v-7.06Z"/>
          <path class="cls-3" d="m69.43,66.55v-7.21c0-9.31.02-28.62-.01-37.93,0-.88.3-1.34,1.02-1.8,6.99-4.46,13.95-8.95,20.92-13.43.3-.19.6-.36,1.06-.63.03.47.07.77.07,1.08,0,11.42,0,32.83.02,44.25,0,.61-.13,1.03-.69,1.38-7.2,4.61-14.38,9.25-21.57,13.88-.21.13-.44.23-.82.41h0Z"/>
          <path class="cls-1" d="m50.05,51.9h-7.06c-7.4,0-14.8,0-22.2.02-1.4,0-1.41,0-1.41,1.4,0,4.01.03,8.03-.02,12.04-.01.99.27,1.27,1.28,1.27,8.22-.04,16.44-.02,24.67-.02h1.15v2.74h-1.26c-12.7,0-25.39,0-38.09.01-.84,0-1.15-.19-1.14-1.09.03-10.92.03-31.85,0-42.77,0-.84.28-1.06,1.08-1.06,18.35.02,36.71.02,55.06,0,.87,0,1.19.2,1.19,1.15-.04,8.79-.03,27.57,0,36.36,0,.96-.28,1.22-1.22,1.21-3.68-.05-7.37-.04-11.05,0-.79,0-1.01-.24-1-1.02.04-2.83.02-5.66.02-8.49v-1.74h0Zm-37.23,6.37c.82,0,1.64-.02,2.46,0,.51,0,.7-.2.69-.7-.01-1.61-.02-3.22,0-4.83.01-.61-.24-.8-.82-.79-1.58.03-3.15.03-4.73,0-.6,0-.81.21-.8.81.03,1.58.03,3.15,0,4.73-.01.62.24.81.82.78.79-.03,1.58,0,2.36,0h.02Zm40.57.01c2.04,0,3.9.02,5.76-.03.2,0,.54-.37.55-.58.04-1.7.04-3.41,0-5.12,0-.2-.37-.55-.57-.55-1.7-.05-3.41-.05-5.11,0-.21,0-.59.34-.59.53-.05,1.86-.03,3.73-.03,5.74h-.01Z"/>
          <path class="cls-1" d="m46.54,55.46v7.06c0,.76-.55.6-.97.6h-13.99c-2.56,0-5.12-.02-7.68,0-.75,0-1.05-.2-1.03-1,.05-1.94.03-3.88,0-5.81,0-.64.14-.96.87-.96,7.39.02,14.78,0,22.17.02.16,0,.32.04.63.08Z"/>
          <path class="cls-3" d="m12.82,58.28c-.79,0-1.58-.02-2.36,0-.58.02-.83-.17-.82-.78.03-1.58.03-3.15,0-4.73-.01-.59.2-.82.8-.81,1.58.03,3.15.03,4.73,0,.58,0,.83.17.82.79-.03,1.61-.02,3.22,0,4.83,0,.5-.18.72-.69.7-.82-.02-1.64,0-2.46,0h-.02Z"/>
          <path class="cls-3" d="m53.39,58.28c0-2.01-.02-3.88.03-5.74,0-.19.38-.53.59-.53,1.7-.04,3.41-.04,5.11,0,.2,0,.57.36.57.55.05,1.7.05,3.41,0,5.12,0,.21-.35.57-.55.58-1.86.04-3.73.03-5.76.03h.01Z"/>
        </g>
      </g>
    </g>
  </g>
</svg>