<?xml version="1.0" encoding="UTF-8"?>
<svg id="Layer_1" data-name="Layer 1" xmlns="http://www.w3.org/2000/svg" viewBox="0 0 459 459">
  <defs>
    <style>
      .cls-1 {
        fill: #fff;
      }

      .cls-2 {
        fill: none;
      }

      .cls-3 {
        fill: #eb531f;
      }
    </style>
  </defs>
  <path class="cls-2" d="m229.5,459H0v-229.5c0,126.7,102.8,229.5,229.5,229.5Z"/>
  <g>
    <path class="cls-2" d="m229.5,0H0v229.5C0,102.8,102.8,0,229.5,0Z"/>
    <path class="cls-2" d="m229.5,0c126.7,0,229.5,102.8,229.5,229.5V0h-229.5Z"/>
    <path class="cls-1" d="m229.5,310.8c-21.9,0-39.6,17.8-39.6,39.6s17.8,39.6,39.6,39.6c10.9,0,20.8-4.42,27.98-11.59,7.17-7.16,11.62-17.06,11.62-28.01,0-21.9-17.7-39.6-39.6-39.6Z"/>
    <path class="cls-1" d="m229.5,211.5c-21.9,0-39.6,17.8-39.6,39.6s17.8,39.6,39.6,39.6c10.95,0,20.85-4.42,28.01-11.59,7.17-7.16,11.59-17.06,11.59-28.01,0-21.9-17.8-39.6-39.6-39.6Z"/>
    <path class="cls-1" d="m130.2,112.2c-21.9,0-39.6,17.7-39.6,39.6s17.7,39.6,39.6,39.6c10.95,0,20.85-4.42,28.01-11.59,7.17-7.16,11.59-17.06,11.59-28.01,0-21.9-17.7-39.6-39.6-39.6Z"/>
    <circle class="cls-1" cx="328.8" cy="151.8" r="39.6" transform="translate(-26.08 79.6) rotate(-13.28)"/>
    <path class="cls-1" d="m229.5,112.2c-21.9,0-39.6,17.7-39.6,39.6s17.7,39.6,39.6,39.6c10.95,0,20.85-4.42,28.01-11.59,7.17-7.16,11.59-17.06,11.59-28.01,0-21.9-17.7-39.6-39.6-39.6Z"/>
    <path class="cls-3" d="m229.5,0C102.8,0,0,102.8,0,229.5s102.8,229.5,229.5,229.5,229.5-102.8,229.5-229.5S356.2,0,229.5,0Zm-71.29,179.81c-7.16,7.17-17.06,11.59-28.01,11.59-21.9,0-39.6-17.7-39.6-39.6s17.7-39.6,39.6-39.6,39.6,17.7,39.6,39.6c0,10.95-4.42,20.85-11.59,28.01Zm99.27,198.6c-7.18,7.17-17.08,11.59-27.98,11.59-21.8,0-39.6-17.7-39.6-39.6s17.7-39.6,39.6-39.6,39.6,17.7,39.6,39.6c0,10.95-4.45,20.85-11.62,28.01Zm.03-99.3c-7.16,7.17-17.06,11.59-28.01,11.59-21.8,0-39.6-17.7-39.6-39.6s17.7-39.6,39.6-39.6,39.6,17.7,39.6,39.6c0,10.95-4.42,20.85-11.59,28.01Zm0-99.3c-7.16,7.17-17.06,11.59-28.01,11.59-21.9,0-39.6-17.7-39.6-39.6s17.7-39.6,39.6-39.6,39.6,17.7,39.6,39.6c0,10.95-4.42,20.85-11.59,28.01Zm71.29,11.59c-21.9,0-39.6-17.7-39.6-39.6s17.7-39.6,39.6-39.6,39.6,17.7,39.6,39.6-17.7,39.6-39.6,39.6Z"/>
  </g>
</svg>